<svg width="512" height="512" viewBox="0 0 512 512" xmlns="http://www.w3.org/2000/svg">
  <defs>
    <filter id="softDropShadow" x="-30%" y="-30%" width="160%" height="160%">
      <feGaussianBlur in="SourceAlpha" stdDeviation="6"/>
      <feOffset dx="0" dy="8" result="offsetblur"/>
      <feFlood flood-color="#000000" flood-opacity="0.4"/>
      <feComposite in2="offsetblur" operator="in"/>
      <feMerge>
        <feMergeNode/>
        <feMergeNode in="SourceGraphic"/>
      </feMerge>
    </filter>

    <filter id="innerShadow">
        <feOffset dx="0" dy="2"/>
        <feGaussianBlur stdDeviation="2" result="offset-blur"/>
        <feComposite operator="out" in="SourceGraphic" in2="offset-blur" result="inverse"/>
        <feFlood flood-color="black" flood-opacity="0.3" result="color"/>
        <feComposite operator="in" in="color" in2="inverse" result="shadow"/>
        <feComposite operator="over" in="shadow" in2="SourceGraphic"/>
    </filter>

    <linearGradient id="matteGradient" x1="0%" y1="0%" x2="100%" y2="100%">
      <stop offset="0%" stop-color="#cdd7e0" /> <stop offset="50%" stop-color="#9aaebc" /> <stop offset="100%" stop-color="#728a9e" /> </linearGradient>

    <linearGradient id="greenBtnGrad" x1="0" y1="0" x2="0" y2="1">
        <stop offset="0%" stop-color="#66bb6a"/> <stop offset="100%" stop-color="#388e3c"/>
    </linearGradient>
    <linearGradient id="redBtnGrad" x1="0" y1="0" x2="0" y2="1">
        <stop offset="0%" stop-color="#ef5350"/> <stop offset="100%" stop-color="#c62828"/>
    </linearGradient>
     <linearGradient id="grayBtnGrad" x1="0" y1="0" x2="0" y2="1">
        <stop offset="0%" stop-color="#90a4ae"/> <stop offset="100%" stop-color="#546e7a"/>
    </linearGradient>

    <linearGradient id="glassReflect" x1="10%" y1="10%" x2="60%" y2="60%">
        <stop offset="0%" stop-color="white" stop-opacity="0.4"/>
        <stop offset="100%" stop-color="white" stop-opacity="0.0"/>
    </linearGradient>

    <clipPath id="glassClip">
      <circle cx="256" cy="240" r="98" />
    </clipPath>
  </defs>

  <rect x="50" y="175" width="120" height="130" rx="20" fill="url(#greenBtnGrad)" filter="url(#softDropShadow)" />
  <path d="M 110,265 V 215 M 90,235 L 110,215 L 130,235" stroke="white" stroke-width="14" stroke-linecap="round" stroke-linejoin="round" fill="none" filter="url(#innerShadow)"/>

  <rect x="342" y="175" width="120" height="130" rx="20" fill="url(#redBtnGrad)" filter="url(#softDropShadow)" />
  <path d="M 402,215 V 265 M 382,245 L 402,265 L 422,245" stroke="white" stroke-width="14" stroke-linecap="round" stroke-linejoin="round" fill="none" filter="url(#innerShadow)"/>

  <g transform="rotate(-45, 360, 360)" filter="url(#softDropShadow)">
    <rect x="345" y="315" width="36" height="150" rx="18" fill="url(#matteGradient)" stroke="#546e7a" stroke-width="1"/>
    <rect x="358" y="320" width="10" height="140" rx="5" fill="#e1ecf4" opacity="0.15" />
  </g>

  <g filter="url(#softDropShadow)">
      <g clip-path="url(#glassClip)">
        <rect x="165" y="175" width="182" height="130" fill="url(#grayBtnGrad)" />
        <rect x="223" y="231" width="66" height="14" rx="7" fill="white" filter="url(#innerShadow)" />
      </g>
      
      <g clip-path="url(#glassClip)">
         <circle cx="256" cy="240" r="98" fill="none" stroke="#000000" stroke-opacity="0.3" stroke-width="8"/>
         <path d="M 170,200 Q 220,150 300,170 C 250,180 200,230 190,280 Q 160,230 170,200 Z" fill="url(#glassReflect)" />
         <ellipse cx="290" cy="280" rx="20" ry="10" transform="rotate(-30 290 280)" fill="white" opacity="0.25"/>
      </g>

      <circle cx="256" cy="240" r="108" stroke="url(#matteGradient)" stroke-width="22" fill="none" />
      
      <circle cx="256" cy="240" r="118" stroke="#ffffff" stroke-opacity="0.25" stroke-width="1.5" fill="none" />
      <circle cx="256" cy="240" r="98" stroke="#ffffff" stroke-opacity="0.3" stroke-width="2" fill="none" />
      <circle cx="256" cy="240" r="97" stroke="#0e2435" stroke-opacity="0.4" stroke-width="1" fill="none" />
  </g>

</svg>